<?xml version="1.0" standalone="no"?>
<!DOCTYPE svg PUBLIC "-//W3C//DTD SVG 20010904//EN"
 "http://www.w3.org/TR/2001/REC-SVG-20010904/DTD/svg10.dtd">
<svg version="1.0" xmlns="http://www.w3.org/2000/svg"
 width="60.000000pt" height="60.000000pt" viewBox="0 0 60.000000 60.000000"
 preserveAspectRatio="xMidYMid meet">

<g transform="translate(0.000000,60.000000) scale(0.100000,-0.100000)"
fill="#000000" stroke="none">
<path d="M12 588 c-9 -9 -12 -82 -12 -267 l0 -256 34 -32 c38 -38 79 -43 98
-13 11 17 24 20 88 20 64 0 77 -3 88 -20 19 -30 60 -25 98 13 l34 32 0 111 0
111 25 -5 c15 -2 25 0 25 7 0 6 -7 11 -15 11 -9 0 -29 7 -45 15 -29 15 -30 18
-30 85 0 67 1 70 30 85 36 19 63 19 99 1 51 -27 64 -89 30 -145 -25 -41 -19
-51 10 -15 42 54 40 103 -8 156 -24 28 -36 32 -75 33 -44 0 -46 1 -46 30 0 17
-5 36 -12 43 -15 15 -318 17 -318 2 0 -6 58 -10 155 -10 l155 0 0 -39 c0 -49
-18 -64 -22 -19 l-3 33 -175 0 c-174 0 -175 0 -178 -22 -5 -36 -22 -27 -22 12
0 31 3 35 25 35 14 0 25 5 25 10 0 14 -43 13 -58 -2z m368 -268 l0 -220 -160
0 c-133 0 -160 2 -160 14 0 8 5 18 10 21 13 8 13 102 0 110 -13 8 -13 142 0
150 13 8 13 102 0 110 -5 3 -10 13 -10 21 0 12 27 14 160 14 l160 0 0 -220z
m-320 130 c0 -33 -3 -40 -20 -40 -17 0 -20 7 -20 40 0 33 3 40 20 40 17 0 20
-7 20 -40z m-20 -130 c0 -40 -4 -70 -10 -70 -6 0 -10 30 -10 70 0 40 4 70 10
70 6 0 10 -30 10 -70z m380 -141 l0 -119 -200 0 -200 0 0 35 c0 39 17 48 22
13 3 -23 4 -23 178 -23 l175 0 3 113 c4 152 22 137 22 -19z m-360 11 c0 -33
-3 -40 -20 -40 -17 0 -20 7 -20 40 0 33 3 40 20 40 17 0 20 -7 20 -40z"/>
<path d="M175 495 c-14 -13 -25 -33 -25 -45 0 -27 43 -70 70 -70 27 0 70 43
70 70 0 27 -43 70 -70 70 -11 0 -32 -11 -45 -25z m79 -11 c31 -30 9 -84 -34
-84 -24 0 -50 26 -50 50 0 24 26 50 50 50 10 0 26 -7 34 -16z"/>
<path d="M200 465 c-7 -9 -10 -19 -6 -22 4 -4 11 -1 17 7 8 13 10 13 18 0 6
-8 13 -11 17 -7 7 7 -13 37 -26 37 -4 0 -13 -7 -20 -15z"/>
<path d="M193 344 c-3 -9 0 -26 7 -37 10 -17 10 -23 -6 -34 -24 -17 -34 -16
-49 4 -17 23 -47 10 -43 -19 2 -19 9 -23 34 -21 25 2 33 -2 38 -20 8 -32 8
-37 -8 -37 -7 0 -19 -7 -26 -16 -11 -12 -10 -18 3 -31 21 -21 47 -9 47 22 0
21 5 25 30 25 25 0 30 -4 30 -25 0 -31 26 -43 47 -22 13 13 14 19 3 31 -7 9
-19 16 -27 16 -11 0 -14 7 -9 23 3 12 6 25 6 30 0 4 15 6 32 5 28 -3 34 1 36
20 4 29 -26 42 -43 19 -26 -36 -77 -6 -54 31 16 25 5 52 -21 52 -11 0 -23 -7
-27 -16z m37 -14 c0 -5 -4 -10 -10 -10 -5 0 -10 5 -10 10 0 6 5 10 10 10 6 0
10 -4 10 -10z m18 -96 c3 -23 -18 -37 -43 -28 -16 6 -20 35 -8 48 14 14 48 1
51 -20z m-78 -84 c0 -5 -4 -10 -10 -10 -5 0 -10 5 -10 10 0 6 5 10 10 10 6 0
10 -4 10 -10z m120 0 c0 -5 -4 -10 -10 -10 -5 0 -10 5 -10 10 0 6 5 10 10 10
6 0 10 -4 10 -10z"/>
<path d="M441 454 c-12 -14 -12 -17 0 -25 12 -8 12 -11 -1 -19 -13 -9 -13 -11
0 -20 13 -9 13 -11 1 -19 -12 -8 -11 -12 3 -27 15 -14 19 -15 27 -3 8 12 10
12 18 0 8 -12 13 -11 30 10 20 24 20 38 -2 92 -13 29 -22 34 -31 15 -5 -10 -7
-10 -12 0 -7 16 -16 15 -33 -4z m69 -34 c0 -5 -9 -10 -20 -10 -11 0 -20 5 -20
10 0 6 9 10 20 10 11 0 20 -4 20 -10z m10 -40 c0 -5 -11 -10 -25 -10 -14 0
-25 5 -25 10 0 6 11 10 25 10 14 0 25 -4 25 -10z"/>
</g>
</svg>
